<?xml version="1.0" encoding="UTF-8" standalone="no"?>
<svg width="108px" height="108px" viewBox="0 0 108 108" version="1.1" xmlns="http://www.w3.org/2000/svg" xmlns:xlink="http://www.w3.org/1999/xlink" xmlns:sketch="http://www.bohemiancoding.com/sketch/ns">
    <!-- Generator: Sketch 3.1 (8751) - http://www.bohemiancoding.com/sketch -->
    <title>icon</title>
    <desc>Created with Sketch.</desc>
    <defs></defs>
    <g id="Page-1" stroke="none" stroke-width="1" fill="none" fill-rule="evenodd" sketch:type="MSPage">
        <g id="Artboard-1" sketch:type="MSArtboardGroup" transform="translate(-107.000000, -235.000000)">
            <g id="icon" sketch:type="MSLayerGroup" transform="translate(108.000000, 236.000000)">
                <ellipse id="Oval-3" fill="#FFFFFF" sketch:type="MSShapeGroup" cx="53" cy="53" rx="53.4486357" ry="53.4486357"></ellipse>
                <path d="M47.0612627,55.3754949 L26.743974,55.3754949 L42.4442015,33.9960406 L63.7878243,33.9960406 L79.5740924,55.3754949 L58.9387373,55.3754949 C58.9387373,58.6553691 56.2798742,61.3142322 53,61.3142322 C49.7201258,61.3142322 47.0612627,58.6553691 47.0612627,55.3754949 Z M41.2051724,31.6205457 L64.9288459,31.6205457 L82.6936865,55.4612127 L82.6936865,73.1917068 L23.3063135,73.1917068 L23.3063135,55.4612127 L41.2051724,31.6205457 Z M36.1739928,49.4367576 C35.6271178,49.4367576 35.1837881,49.88357 35.1837881,50.4304173 L35.1837881,50.8185928 C35.1837881,51.3673759 35.6343136,51.8122525 36.1739928,51.8122525 L69.8260072,51.8122525 C70.3728822,51.8122525 70.8162119,51.3654401 70.8162119,50.8185928 L70.8162119,50.4304173 C70.8162119,49.8816342 70.3656864,49.4367576 69.8260072,49.4367576 L36.1739928,49.4367576 Z M40.9272143,43.4980203 C40.3791068,43.4980203 39.9347779,43.9448327 39.9347779,44.49168 L39.9347779,44.8798555 C39.9347779,45.4286386 40.3883207,45.8735152 40.9272143,45.8735152 L65.0727857,45.8735152 C65.6208932,45.8735152 66.0652221,45.4267028 66.0652221,44.8798555 L66.0652221,44.49168 C66.0652221,43.9428969 65.6116793,43.4980203 65.0727857,43.4980203 L40.9272143,43.4980203 Z M45.6761562,37.559283 C45.1291798,37.559283 44.6857678,38.0060954 44.6857678,38.5529427 L44.6857678,38.9411182 C44.6857678,39.4899013 45.130539,39.9347779 45.6761562,39.9347779 L60.3238438,39.9347779 C60.8708202,39.9347779 61.3142322,39.4879655 61.3142322,38.9411182 L61.3142322,38.5529427 C61.3142322,38.0041596 60.869461,37.559283 60.3238438,37.559283 L45.6761562,37.559283 Z" id="-drawer-F" fill="#563D7C" sketch:type="MSShapeGroup"></path>
            </g>
        </g>
    </g>
</svg>